<svg width="24" height="24" viewBox="0 0 24 24" fill="none" xmlns="http://www.w3.org/2000/svg">
<path fill-rule="evenodd" clip-rule="evenodd" d="M9.59607 1.11359C9.71589 1.11487 9.83044 1.0996 9.93971 1.06779C11.3754 0.973736 12.8111 0.977551 14.2467 1.07924C15.5485 1.18066 16.8085 1.46308 18.0269 1.9265C20.0525 2.76044 21.4386 4.2069 22.1851 6.26586C22.6119 7.50549 22.864 8.78023 22.9411 10.09C23.0478 11.7348 23.0096 13.3758 22.8265 15.0133C22.6895 16.1642 22.3916 17.271 21.933 18.3336C21.0824 20.1761 19.704 21.447 17.7978 22.1463C16.2531 22.6683 14.6646 22.943 13.0325 22.9707C11.1966 23.0662 9.37914 22.9287 7.57998 22.5585C4.2684 21.8208 2.22559 19.8019 1.45158 16.5017C1.12311 15.0161 0.974199 13.5124 1.00483 11.9906C0.968176 10.3724 1.14 8.77708 1.52031 7.20472C2.33171 4.11908 4.29051 2.20701 7.39669 1.46852C8.12049 1.29157 8.85364 1.17326 9.59607 1.11359Z" fill="url(#paint0_linear_107_2)"/>
<path fill-rule="evenodd" clip-rule="evenodd" d="M18.2026 3.94401C18.0843 3.9914 17.9725 4.04306 17.8671 4.09899C17.7563 4.15776 17.6362 4.20004 17.5066 4.22582C17.2215 4.27028 16.9388 4.29589 16.6584 4.30267C16.3899 4.3071 16.1048 4.35156 15.8032 4.43605C15.5039 4.53232 15.2435 4.63923 15.0219 4.75678C14.8004 4.87433 14.6318 5.04259 14.5161 5.26155C14.4146 5.48994 14.333 5.75723 14.2715 6.0634C14.2099 6.36958 14.1225 6.63804 14.0091 6.86878C13.962 6.9394 13.9089 7.01119 13.8499 7.08416C13.8027 7.15478 13.7626 7.23012 13.7295 7.31018C13.6918 7.36667 13.6634 7.43967 13.6445 7.52917C13.6232 7.60688 13.589 7.68105 13.5418 7.75167C13.4781 7.86232 13.4132 7.96708 13.3471 8.06595C13.2905 8.1507 13.2574 8.23076 13.2479 8.30613C13.21 8.48512 13.1969 8.66532 13.2085 8.84672C13.2295 9.014 13.2258 9.18007 13.1974 9.34494C13.1571 9.51215 13.1099 9.67464 13.0555 9.83242C13.0012 9.99019 12.9798 10.1598 12.9914 10.3412C12.9301 10.4024 12.8676 10.4577 12.8039 10.5071C12.7403 10.5565 12.6554 10.5917 12.5494 10.6128C12.5516 10.7471 12.5091 10.8719 12.4218 10.9872C12.3322 11.0908 12.2685 11.2014 12.2306 11.3192C12.1857 11.4628 12.1479 11.6112 12.1171 11.7643C12.0981 11.915 12.0661 12.0622 12.0212 12.2059C11.9598 12.3896 11.8783 12.565 11.7769 12.7321C11.6872 12.8969 11.6116 13.0712 11.5502 13.2548C11.5029 13.3867 11.4651 13.5351 11.4366 13.6999C11.4176 13.8507 11.3869 14.0038 11.3443 14.1592C11.3112 14.3005 11.2615 14.4512 11.1954 14.6113C11.1269 14.7597 11.0868 14.8963 11.0748 15.0211C11.0677 15.1083 11.0664 15.1942 11.071 15.2791C11.0851 15.3497 11.0874 15.4228 11.0779 15.4981C11.0471 15.6512 11.0045 15.8067 10.9502 15.9644C10.91 16.0704 10.8887 16.1787 10.8862 16.2895L10.9142 16.6146C10.9235 16.7229 10.9198 16.8278 10.9032 16.929C10.8984 17.028 10.8618 17.121 10.7934 17.2081C10.6498 17.1632 10.5379 17.0936 10.4579 16.9992C10.3874 16.8908 10.3215 16.7753 10.2604 16.6528C10.2111 16.5279 10.1653 16.39 10.123 16.2392C10.0926 16.086 10.0492 15.9293 9.9928 15.7691C9.93643 15.6088 9.89184 15.4463 9.85903 15.2813C9.83801 15.114 9.79814 14.9444 9.73943 14.7724C9.69243 14.6592 9.62776 14.5496 9.54542 14.4435C9.47487 14.3351 9.41492 14.2184 9.36558 14.0935C9.17057 13.6057 8.99209 13.0778 8.83014 12.51C8.66585 11.9303 8.52746 11.3577 8.41498 10.7922C8.39623 10.698 8.39044 10.6073 8.3976 10.5201C8.41419 10.4188 8.4084 10.3281 8.38021 10.248C8.32619 10.0996 8.24977 9.96166 8.15097 9.83435C8.0616 9.69292 8.04763 9.53036 8.10907 9.34668C8.00077 9.29474 7.9443 9.22637 7.93968 9.14156C7.93271 9.04497 7.94342 8.94486 7.97179 8.84124C8.00961 8.7235 8.04859 8.61164 8.08875 8.50568C8.13835 8.38559 8.16555 8.27608 8.17037 8.17715C8.18937 8.0264 8.18836 7.86739 8.16733 7.70011C8.15574 7.51871 8.12765 7.34672 8.08307 7.18413C8.04792 7.00742 7.99861 6.85189 7.93515 6.71755C7.86934 6.57143 7.79172 6.45827 7.70229 6.37809C7.5658 6.24602 7.37151 6.19282 7.11942 6.21847C6.87677 6.22999 6.61876 6.28744 6.3454 6.3908C6.08381 6.49182 5.8328 6.61523 5.59237 6.76103C5.36371 6.90449 5.19279 7.03034 5.07961 7.13859C5.00867 7.39764 5.02139 7.61555 5.11779 7.79233C5.22597 7.96676 5.30707 8.12821 5.3611 8.27668C5.41044 8.40158 5.43504 8.52528 5.43492 8.64778C5.44657 8.76793 5.4688 8.91047 5.50161 9.07541C5.52732 9.26624 5.57188 9.45946 5.63527 9.65505C5.69633 9.83885 5.7515 10.0238 5.80077 10.21C5.85473 10.4197 5.89102 10.6329 5.90964 10.8497C5.92592 11.0546 5.95397 11.2572 5.99381 11.4575C6.04308 11.6437 6.13831 11.8146 6.27949 11.9702C6.43011 12.1117 6.5183 12.2472 6.54408 12.3768C6.56758 12.4334 6.57458 12.4993 6.56507 12.5747C6.56735 12.6477 6.56846 12.7149 6.5684 12.7761C6.57764 12.9458 6.60218 13.1307 6.64202 13.331C6.67951 13.5195 6.72056 13.695 6.76514 13.8576C6.80498 14.0579 6.83187 14.2546 6.8458 14.4478C6.87151 14.6386 6.91255 14.8142 6.96892 14.9744C7.02763 15.1464 7.10402 15.315 7.19807 15.4799C7.30156 15.6308 7.39445 15.7899 7.47672 15.9573C7.52606 16.0822 7.57068 16.2141 7.61058 16.3532C7.66226 16.4898 7.71278 16.6206 7.76211 16.7455C7.81145 16.8704 7.86668 16.9942 7.9278 17.1167C7.99836 17.2252 8.05831 17.3418 8.10765 17.4667C8.17105 17.6623 8.20616 17.8697 8.213 18.0888C8.22928 18.2937 8.275 18.4928 8.35018 18.6861C8.40655 18.8463 8.50181 18.9866 8.63596 19.1069C8.77011 19.2271 8.86888 19.3851 8.93228 19.5807C9.06656 19.5785 9.17607 19.6057 9.26082 19.6623C9.34556 19.7189 9.43975 19.7614 9.54337 19.7898C9.6093 19.8134 9.68233 19.8111 9.76245 19.7829C9.84492 19.7665 9.92146 19.7819 9.99208 19.8291C10.0604 19.8645 10.1274 19.9247 10.1933 20.0095C10.2592 20.0944 10.3333 20.1593 10.4157 20.2041C10.5923 20.2915 10.7619 20.3435 10.9244 20.3601C11.0869 20.3768 11.2389 20.3098 11.3804 20.1592C11.4936 20.051 11.6068 19.9121 11.7201 19.7426C11.8357 19.5849 11.9395 19.4295 12.0315 19.2765C12.0669 19.2082 12.0905 19.1423 12.1024 19.0787C12.126 19.0128 12.1567 18.9515 12.1945 18.895C12.2605 18.7962 12.3478 18.7115 12.4562 18.6409C12.5646 18.5703 12.6696 18.4821 12.771 18.3762C12.9219 18.2115 13.047 18.009 13.1462 17.7688C13.2548 17.5145 13.3705 17.265 13.4932 17.0201C13.5334 16.9141 13.5794 16.807 13.6314 16.6987C13.6833 16.5904 13.7411 16.4809 13.8049 16.3702C13.845 16.2643 13.8946 16.1442 13.9536 16.01C14.0127 15.8758 14.0458 15.7651 14.0529 15.6779C14.053 15.6167 14.0366 15.5648 14.0036 15.5224C13.9825 15.4776 13.9778 15.4234 13.9897 15.3598C13.9921 15.2491 14.0276 15.1196 14.0961 14.9713C14.1763 14.8206 14.2401 14.6793 14.2873 14.5474C14.3937 14.2201 14.4941 13.9246 14.5886 13.6608C14.6949 13.3948 14.8224 13.1428 14.971 12.9051C14.9829 12.7802 15.0172 12.6754 15.0738 12.5907C15.1399 12.4918 15.1895 12.3717 15.2226 12.2304C15.2581 12.1009 15.2747 11.969 15.2725 11.8347C15.2703 11.7004 15.2916 11.5615 15.3365 11.4178C15.3719 11.3495 15.4191 11.2789 15.4781 11.206C15.5488 11.1307 15.6066 11.0518 15.6515 10.9694C15.7719 10.7128 15.8605 10.4502 15.9173 10.1817C15.9836 9.89908 16.0757 9.62356 16.1938 9.35514C16.4205 8.83241 16.6495 8.32147 16.8809 7.8223C17.1123 7.32314 17.3402 6.8063 17.5645 6.27179C17.6512 6.06184 17.755 5.8438 17.876 5.61768L17.8699 5.61647L18.2026 3.94401Z" fill="white"/>
<defs>
<linearGradient id="paint0_linear_107_2" x1="12" y1="1" x2="12" y2="23" gradientUnits="userSpaceOnUse">
<stop stop-color="#365F8E"/>
<stop offset="1" stop-color="#214069"/>
</linearGradient>
</defs>
</svg>
